<?xml version="1.0" encoding="utf-8"?>
<!-- Generator: Adobe Illustrator 19.0.0, SVG Export Plug-In . SVG Version: 6.00 Build 0)  -->
<svg version="1.1" id="layer" xmlns="http://www.w3.org/2000/svg" xmlns:xlink="http://www.w3.org/1999/xlink" x="0px" y="0px"
	 viewBox="-153 -46 652 652" style="enable-background:new -153 -46 652 652;" xml:space="preserve">
<style type="text/css">
	.st0{fill:#9F7037;}
	.st1{fill:#6B3F23;}
	.st2{fill:#A27D22;}
	.st3{fill:#FFFFFF;}
</style>
<path class="st0" d="M157.3,341.2c0-2.5,1.8-4.2,4.2-4.2c2.5,0,4.3,1.7,4.3,4.2c0,2.5-1.8,4.2-4.3,4.2
	C159.1,345.4,157.3,343.7,157.3,341.2 M232,341.2c0,2.5,1.8,4.2,4.2,4.2c2.5,0,4.3-1.7,4.3-4.2c0-2.5-1.8-4.2-4.3-4.2
	C233.8,336.9,232,338.7,232,341.2"/>
<path class="st1" d="M4.3,350.6c-0.2,0-0.3-0.1-0.3-0.3v-14.1c0-0.2,0.1-0.3,0.3-0.3h2.8c0.2,0,0.3,0.1,0.3,0.3v1.3h0
	c0.7-1.1,2-1.9,3.8-1.9c1.2,0,2.3,0.5,3.1,1.2c0.2,0.2,0.2,0.3,0.1,0.4l-1.6,2c-0.1,0.2-0.3,0.2-0.4,0.1c-0.7-0.4-1.4-0.7-2.2-0.7
	c-1.9,0-2.8,1.4-2.8,3.7v8c0,0.2-0.1,0.3-0.3,0.3H4.3z M17.1,346.8c0.8,2.6,3,4.1,6.1,4.1c2.7,0,4.8-1,6.1-2.5
	c0.1-0.2,0.1-0.3,0-0.4l-1.8-1.6c-0.2-0.1-0.3-0.1-0.5,0.1c-0.7,0.8-1.8,1.4-3.5,1.4s-2.8-0.8-3.3-2.2c-0.1-0.3-0.2-0.7-0.2-1.1
	c0-0.1,0.1-0.2,0.2-0.2h9.1c0.2,0,0.3-0.1,0.3-0.3c0-2.4-0.2-3.4-0.5-4.4c-0.8-2.5-3-4.1-6.1-4.1c-2.9,0-5.2,1.5-6,4.1
	c-0.3,0.9-0.5,2.1-0.5,3.6C16.5,344.8,16.8,345.9,17.1,346.8 M26,340.3c0.1,0.4,0.2,0.7,0.2,1.3c0,0.1-0.1,0.2-0.2,0.2h-5.8
	c-0.1,0-0.2-0.1-0.2-0.2c0-0.5,0.1-0.9,0.2-1.3c0.4-1.2,1.5-1.9,2.9-1.9C24.5,338.4,25.6,339.1,26,340.3 M32.9,348.6
	c1.2,1.1,3.3,2.3,6.3,2.3c4,0,6.2-2,6.2-5c0-2.4-1.5-4-4.6-4.3l-1.6-0.2c-1.9-0.2-2.4-0.7-2.4-1.6c0-0.9,0.8-1.5,2.2-1.5
	c1.5,0,2.9,0.6,3.8,1.2c0.2,0.1,0.3,0.1,0.4-0.1l1.5-1.8c0.1-0.1,0.1-0.3-0.1-0.4c-1.3-1-3.2-1.8-5.5-1.8c-3.7,0-5.7,1.8-5.7,4.6
	c0,2.5,1.5,4,4.5,4.3l1.6,0.2c1.9,0.2,2.4,0.7,2.4,1.6c0,1-0.9,1.7-2.7,1.7c-1.5,0-3.2-0.7-4.3-1.7c-0.1-0.1-0.3-0.1-0.4,0l-1.7,1.8
	C32.7,348.3,32.7,348.5,32.9,348.6 M55.3,350.8c0.2,0,0.3-0.1,0.3-0.3V348c0-0.2-0.1-0.3-0.3-0.3h-0.8c-0.9,0-1.4-0.3-1.4-1.4v-7.6
	c0-0.1,0.1-0.2,0.2-0.2h2c0.2,0,0.3-0.1,0.3-0.3v-2c0-0.2-0.1-0.3-0.3-0.3h-2c-0.1,0-0.2-0.1-0.2-0.2v-4c0-0.2-0.1-0.3-0.3-0.3H50
	c-0.2,0-0.3,0.1-0.3,0.3v4c0,0.1-0.1,0.2-0.2,0.2h-1c-0.2,0-0.3,0.1-0.3,0.3v2c0,0.2,0.1,0.3,0.3,0.3h1c0.1,0,0.2,0.1,0.2,0.2v7.8
	c0,2.9,1.1,4.3,4.1,4.3H55.3z M71,350.6c0.2,0,0.3-0.1,0.3-0.3v-9.6c0-3.6-1.7-5.1-6.1-5.1c-2.4,0-4,0.6-5.2,1.4
	c-0.1,0.1-0.2,0.2-0.1,0.4l1.1,2c0.1,0.2,0.3,0.2,0.4,0.1c0.7-0.5,1.7-1,3.4-1c2.5,0,3.3,0.8,3.3,2.4v0.7c0,0.1-0.1,0.2-0.2,0.2h-3
	c-3.6,0-5.9,1.5-5.9,4.7c0,3.1,2.3,4.5,5,4.5c2.1,0,3.5-0.7,4.2-1.7h0v1.1c0,0.2,0.1,0.3,0.3,0.3H71z M68.1,345.7
	c0,1.7-1.2,2.5-3.3,2.5c-1.7,0-2.5-0.6-2.5-1.8c0-1.4,1-2,3.2-2h2.4c0.1,0,0.2,0.1,0.2,0.2V345.7 M87.8,350.6c0.2,0,0.3-0.1,0.3-0.3
	v-14.1c0-0.2-0.1-0.3-0.3-0.3H85c-0.2,0-0.3,0.1-0.3,0.3v8.5c0,1.9-1,3.2-2.7,3.2c-1.9,0-2.8-1.3-2.8-3.2v-8.5
	c0-0.2-0.1-0.3-0.3-0.3h-2.8c-0.2,0-0.3,0.1-0.3,0.3v9.3c0,3.1,1.9,5.5,5.1,5.5c1.9,0,3-0.7,3.8-1.7h0v1.1c0,0.2,0.1,0.3,0.3,0.3
	H87.8z M96,350.6c0.2,0,0.3-0.1,0.3-0.3v-8c0-2.4,0.9-3.7,2.8-3.7c0.8,0,1.5,0.3,2.2,0.7c0.2,0.1,0.3,0.1,0.4-0.1l1.6-2
	c0.1-0.2,0.1-0.3-0.1-0.4c-0.8-0.8-1.9-1.2-3.1-1.2c-1.9,0-3.1,0.8-3.8,1.9h0v-1.3c0-0.2-0.1-0.3-0.3-0.3h-2.8
	c-0.2,0-0.3,0.1-0.3,0.3v14.1c0,0.2,0.1,0.3,0.3,0.3H96z M117.8,350.6c0.2,0,0.3-0.1,0.3-0.3v-9.6c0-3.6-1.7-5.1-6.1-5.1
	c-2.4,0-4,0.6-5.2,1.4c-0.1,0.1-0.2,0.2-0.1,0.4l1.1,2c0.1,0.2,0.3,0.2,0.4,0.1c0.7-0.5,1.7-1,3.4-1c2.5,0,3.3,0.8,3.3,2.4v0.7
	c0,0.1-0.1,0.2-0.2,0.2h-3c-3.6,0-5.9,1.5-5.9,4.7c0,3.1,2.3,4.5,5,4.5c2.1,0,3.5-0.7,4.2-1.7h0v1.1c0,0.2,0.1,0.3,0.3,0.3H117.8z
	 M114.9,345.7c0,1.7-1.2,2.5-3.3,2.5c-1.7,0-2.5-0.6-2.5-1.8c0-1.4,1-2,3.2-2h2.4c0.1,0,0.2,0.1,0.2,0.2V345.7 M134.9,350.6
	c0.2,0,0.3-0.1,0.3-0.3V341c0-3.1-2-5.5-5.1-5.5c-2,0-3.2,0.8-3.9,1.7h0v-1.1c0-0.2-0.1-0.3-0.3-0.3h-2.8c-0.2,0-0.3,0.1-0.3,0.3
	v14.1c0,0.2,0.1,0.3,0.3,0.3h2.8c0.2,0,0.3-0.1,0.3-0.3v-8.5c0-1.9,1-3.2,2.8-3.2c1.8,0,2.8,1.3,2.8,3.2v8.5c0,0.2,0.1,0.3,0.3,0.3
	H134.9z M145.5,350.8c0.2,0,0.3-0.1,0.3-0.3V348c0-0.2-0.1-0.3-0.3-0.3h-0.8c-0.9,0-1.4-0.3-1.4-1.4v-7.6c0-0.1,0.1-0.2,0.2-0.2h2
	c0.2,0,0.3-0.1,0.3-0.3v-2c0-0.2-0.1-0.3-0.3-0.3h-2c-0.1,0-0.2-0.1-0.2-0.2v-4c0-0.2-0.1-0.3-0.3-0.3h-2.8c-0.2,0-0.3,0.1-0.3,0.3
	v4c0,0.1-0.1,0.2-0.2,0.2h-1c-0.2,0-0.3,0.1-0.3,0.3v2c0,0.2,0.1,0.3,0.3,0.3h1c0.1,0,0.2,0.1,0.2,0.2v7.8c0,2.9,1.1,4.3,4.1,4.3
	H145.5z M181.5,349.2c0.7,1,1.9,1.7,3.9,1.7c2.5,0,4.3-1.2,5.1-3.5c0.4-1.1,0.5-2.2,0.5-4.2s-0.2-3-0.5-4.2
	c-0.8-2.4-2.6-3.5-5.1-3.5c-2,0-3.2,0.7-3.9,1.7h0v-7.1c0-0.2-0.1-0.3-0.3-0.3h-2.8c-0.2,0-0.3,0.1-0.3,0.3v20.2
	c0,0.2,0.1,0.3,0.3,0.3h2.8c0.2,0,0.3-0.1,0.3-0.3L181.5,349.2L181.5,349.2 M187.2,346c-0.4,1.2-1.3,1.9-2.7,1.9
	c-1.4,0-2.4-0.7-2.7-1.9c-0.2-0.7-0.3-1.4-0.3-2.7c0-1.3,0.1-2.1,0.3-2.7c0.4-1.2,1.3-1.9,2.7-1.9c1.4,0,2.3,0.7,2.7,1.9
	c0.2,0.7,0.3,1.4,0.3,2.7C187.5,344.6,187.4,345.3,187.2,346 M206.4,350.6c0.2,0,0.3-0.1,0.3-0.3v-9.6c0-3.6-1.7-5.1-6.1-5.1
	c-2.4,0-4,0.6-5.2,1.4c-0.1,0.1-0.2,0.2-0.1,0.4l1.1,2c0.1,0.2,0.3,0.2,0.4,0.1c0.7-0.5,1.7-1,3.4-1c2.5,0,3.3,0.8,3.3,2.4v0.7
	c0,0.1-0.1,0.2-0.2,0.2h-3c-3.6,0-5.9,1.5-5.9,4.7c0,3.1,2.3,4.5,5,4.5c2.1,0,3.5-0.7,4.2-1.7h0v1.1c0,0.2,0.1,0.3,0.3,0.3H206.4z
	 M203.5,345.7c0,1.7-1.2,2.5-3.3,2.5c-1.7,0-2.5-0.6-2.5-1.8c0-1.4,1-2,3.2-2h2.4c0.1,0,0.2,0.1,0.2,0.2V345.7 M214.5,350.6
	c0.2,0,0.3-0.1,0.3-0.3v-8c0-2.4,0.9-3.7,2.8-3.7c0.8,0,1.5,0.3,2.2,0.7c0.1,0.1,0.3,0.1,0.4-0.1l1.6-2c0.1-0.2,0.1-0.3-0.1-0.4
	c-0.8-0.8-1.9-1.2-3.1-1.2c-1.9,0-3.1,0.8-3.8,1.9h0v-1.3c0-0.2-0.1-0.3-0.3-0.3h-2.8c-0.2,0-0.3,0.1-0.3,0.3v14.1
	c0,0.2,0.1,0.3,0.3,0.3H214.5z M252.4,346.9c0.9,2.6,3.1,4.1,6.1,4.1c2.2,0,3.9-0.9,5.1-2.3c0.1-0.2,0.1-0.3,0-0.4l-1.9-1.7
	c-0.2-0.1-0.3-0.1-0.4,0c-0.7,0.8-1.5,1.3-2.7,1.3c-1.3,0-2.3-0.6-2.8-1.9c-0.2-0.7-0.3-1.6-0.3-2.7c0-1.1,0.1-2,0.3-2.7
	c0.4-1.3,1.4-1.9,2.8-1.9c1.2,0,2,0.5,2.7,1.3c0.1,0.2,0.3,0.2,0.4,0.1l1.9-1.7c0.2-0.1,0.1-0.3,0-0.4c-1.2-1.4-2.9-2.3-5.1-2.3
	c-3,0-5.2,1.4-6.1,4.1c-0.3,0.9-0.5,2.1-0.5,3.6C251.9,344.8,252.1,346,252.4,346.9 M279,350.6c0.2,0,0.3-0.1,0.3-0.3v-9.6
	c0-3.6-1.7-5.1-6.1-5.1c-2.4,0-4,0.6-5.2,1.4c-0.1,0.1-0.2,0.2-0.1,0.4l1.1,2c0.1,0.2,0.3,0.2,0.4,0.1c0.7-0.5,1.7-1,3.4-1
	c2.5,0,3.3,0.8,3.3,2.4v0.7c0,0.1-0.1,0.2-0.2,0.2h-3c-3.6,0-5.9,1.5-5.9,4.7c0,3.1,2.3,4.5,5,4.5c2.1,0,3.5-0.7,4.2-1.7h0v1.1
	c0,0.2,0.1,0.3,0.3,0.3H279z M276.1,345.7c0,1.7-1.2,2.5-3.3,2.5c-1.7,0-2.5-0.6-2.5-1.8c0-1.4,1-2,3.2-2h2.4c0.1,0,0.2,0.1,0.2,0.2
	V345.7 M289.7,350.8c0.2,0,0.3-0.1,0.3-0.3V348c0-0.2-0.1-0.3-0.3-0.3h-0.8c-0.9,0-1.4-0.3-1.4-1.4v-7.6c0-0.1,0.1-0.2,0.2-0.2h2
	c0.2,0,0.3-0.1,0.3-0.3v-2c0-0.2-0.1-0.3-0.3-0.3h-2c-0.1,0-0.2-0.1-0.2-0.2v-4c0-0.2-0.1-0.3-0.3-0.3h-2.8c-0.2,0-0.3,0.1-0.3,0.3
	v4c0,0.1-0.1,0.2-0.2,0.2h-1c-0.2,0-0.3,0.1-0.3,0.3v2c0,0.2,0.1,0.3,0.3,0.3h1c0.1,0,0.2,0.1,0.2,0.2v7.8c0,2.9,1.1,4.3,4.1,4.3
	H289.7z M293.6,346.8c0.8,2.6,3,4.1,6.1,4.1c2.7,0,4.8-1,6.1-2.5c0.1-0.2,0.1-0.3,0-0.4l-1.8-1.6c-0.2-0.1-0.3-0.1-0.5,0.1
	c-0.7,0.8-1.8,1.4-3.5,1.4c-1.6,0-2.8-0.8-3.3-2.2c-0.1-0.3-0.2-0.7-0.2-1.1c0-0.1,0.1-0.2,0.2-0.2h9.1c0.2,0,0.3-0.1,0.3-0.3
	c0-2.4-0.2-3.4-0.5-4.4c-0.8-2.5-3-4.1-6.1-4.1c-2.9,0-5.2,1.5-6,4.1c-0.3,0.9-0.5,2.1-0.5,3.6C293.1,344.8,293.3,345.9,293.6,346.8
	 M302.5,340.3c0.1,0.4,0.2,0.7,0.2,1.3c0,0.1-0.1,0.2-0.2,0.2h-5.8c-0.1,0-0.2-0.1-0.2-0.2c0-0.5,0.1-0.9,0.2-1.3
	c0.4-1.2,1.5-1.9,2.9-1.9C301,338.4,302.1,339.1,302.5,340.3 M313.3,350.6c0.2,0,0.3-0.1,0.3-0.3v-8c0-2.4,0.9-3.7,2.8-3.7
	c0.8,0,1.5,0.3,2.2,0.7c0.2,0.1,0.3,0.1,0.4-0.1l1.6-2c0.1-0.2,0.1-0.3-0.1-0.4c-0.8-0.8-1.9-1.2-3.1-1.2c-1.9,0-3.1,0.8-3.8,1.9h0
	v-1.3c0-0.2-0.1-0.3-0.3-0.3h-2.8c-0.2,0-0.3,0.1-0.3,0.3v14.1c0,0.2,0.1,0.3,0.3,0.3H313.3z M326.9,333.1c0.2,0,0.3-0.1,0.3-0.3
	v-2.7c0-0.2-0.1-0.3-0.3-0.3h-2.8c-0.2,0-0.3,0.1-0.3,0.3v2.7c0,0.2,0.1,0.3,0.3,0.3H326.9z M326.9,350.6c0.2,0,0.3-0.1,0.3-0.3
	v-14.1c0-0.2-0.1-0.3-0.3-0.3h-2.8c-0.2,0-0.3,0.1-0.3,0.3v14.1c0,0.2,0.1,0.3,0.3,0.3H326.9z M344.1,350.6c0.2,0,0.3-0.1,0.3-0.3
	V341c0-3.1-2-5.5-5.1-5.5c-2,0-3.2,0.8-3.9,1.7h0v-1.1c0-0.2-0.1-0.3-0.3-0.3h-2.8c-0.2,0-0.3,0.1-0.3,0.3v14.1
	c0,0.2,0.1,0.3,0.3,0.3h2.8c0.2,0,0.3-0.1,0.3-0.3v-8.5c0-1.9,1-3.2,2.8-3.2c1.8,0,2.8,1.3,2.8,3.2v8.5c0,0.2,0.1,0.3,0.3,0.3H344.1
	z M348.9,354.2c1.1,1.3,3.3,2.2,5.4,2.2c4.5,0,6.9-2.5,6.9-6.8v-13.5c0-0.2-0.1-0.3-0.3-0.3H358c-0.2,0-0.3,0.1-0.3,0.3v1.1h0
	c-0.7-1.1-1.9-1.7-3.8-1.7c-2.5,0-4.3,1.3-5,3.6c-0.4,1.1-0.5,2.1-0.5,3.7s0.1,2.6,0.5,3.8c0.8,2.3,2.5,3.6,5,3.6
	c1.9,0,3.1-0.7,3.8-1.7h0v1.4c0,2.3-1,3.5-3.3,3.5c-1.2,0-2.3-0.5-3.2-1.4c-0.1-0.2-0.3-0.2-0.5,0l-1.8,1.8
	C348.7,354,348.7,354.1,348.9,354.2 M357.3,345.3c-0.4,1.2-1.2,1.9-2.6,1.9c-1.4,0-2.2-0.7-2.6-1.9c-0.2-0.7-0.3-1.4-0.3-2.4
	c0-1,0.1-1.7,0.3-2.4c0.4-1.2,1.2-1.9,2.6-1.9c1.4,0,2.2,0.7,2.6,1.9c0.2,0.7,0.3,1.4,0.3,2.4C357.7,343.9,357.6,344.6,357.3,345.3"
	/>
<path class="st2" d="M31.6,314.7c0.7,1,1.8,1.7,2.9,2.1c1.1,0.4,2.3,0.7,3.6,0.8c2.5,0.3,5.2,0.2,8,0.2l37-0.4l59.4,0.6
	c6.6,0,9.3-0.3,10-0.6c0.5,0.1,0.9,0.2,1.4,0.3c4,1,8.4,1.7,12.8,1.9c4.3,0.1,8.8-0.5,12.3-2.3c1.8-0.9,3.4-2,4.5-3.4
	c0.2-0.3,0.4-0.6,0.6-1c0.2,0.3,0.4,0.7,0.6,1c1.1,1.5,2.7,2.6,4.4,3.5c3.6,1.8,8,2.4,12.3,2.3c4.4-0.1,8.7-0.9,12.8-1.9
	c0.5-0.1,0.9-0.2,1.4-0.3c0.7,0.4,3.4,0.6,10,0.6l59.4-0.6l37,0.4c2.8,0,5.5,0.1,8-0.2c1.2-0.1,2.5-0.4,3.6-0.8
	c1.1-0.4,2.2-1.1,2.9-2.1c0.7-1,0.9-2.2,0.6-3.2c-0.3-1.1-1-1.8-1.7-2.3c-0.7-0.5-1.4-0.7-2-0.7c-0.6,0-1,0-1.4,0.1
	c-0.6,0.1-1.2,0.3-1.7,0.7c-0.5,0.4-0.9,1-1,1.6c-0.1,0.7,0.1,1.2,0.4,1.7c0.3,0.4,0.6,0.8,1.1,1c0.9,0.4,1.9,0.2,2.5-0.3
	c0.3-0.3,0.5-0.7,0.5-1c0.1-0.4,0-0.7-0.1-0.9c-0.2-0.5-0.5-0.8-0.8-1c0.1,0,0.2,0,0.3,0c0.3,0,0.8,0.1,1.2,0.4
	c0.4,0.3,0.8,0.7,1,1.3c0.2,0.5,0,1.3-0.4,1.9c-0.8,1.3-3,2-5.3,2.3c-2.3,0.3-5,0.2-7.8,0.3l-37,0.4l-59.4-0.6c-2.7,0-4.7,0-6.2,0.1
	c6.5-1.8,13.2-4.1,18.9-6.2c3.6-1.4,6.8-2.4,9.4-2.9c0.1,0,0.2,0,0.4,0c0.2,0.3,0.4,0.7,0.5,1c0.2,0.5,0.2,1,0.3,1.2
	c0.2,1.8-0.1,3-0.1,3.7c0,0.8,0,1.1,0.2,1.1c0.2,0,0.4-0.2,0.7-0.9c0.3-0.8,0.7-2,0.5-4.1c0-0.3-0.1-0.8-0.4-1.5
	c-0.1-0.2-0.2-0.4-0.3-0.7c1.6-0.1,2.7,0.1,3.2,0.2c2.4,0.6,3,2.3,3.4,3.1c0.3,0.9,0.5,1.4,0.7,1.3c0.2,0,0.4-0.4,0.2-1.6
	c-0.1-0.6-0.3-1.3-0.9-2.2c-0.6-0.9-1.7-1.7-3.1-2c-0.7-0.2-2.4-0.4-4.6-0.1c-0.1-0.1-0.2-0.2-0.4-0.3c-0.9-0.6-2.1-1-3.4-1
	c-1.3-0.1-2.6,0.1-4,0.4c-2.8,0.6-5.7,1.7-8.5,2.9c-2.8,1.3-5.7,2.4-8.5,3.5c-5.6,1.9-12.1,3.6-17.5,4.2c-2.7,0.3-5.1,0.4-7,0.3
	c-1.9-0.1-3.2-0.4-3.7-0.5c-1.8-0.4-2.9-0.9-3.6-1.2c-0.7-0.3-1-0.3-1.1-0.2c-0.1,0.1,0,0.5,0.6,1c0.6,0.5,1.8,1.2,3.8,1.7
	c0.6,0.1,2,0.4,3.9,0.5c2,0.1,4.5-0.1,7.2-0.5c5.5-0.8,12-2.7,17.6-4.8c2.8-0.9,5.8-2,8.7-3.2c2.9-1.2,5.7-2.1,8.4-2.6
	c2.2-0.4,4.3-0.4,5.7,0.2c-2.5,0.6-5.5,1.6-8.8,3c-7.1,2.8-15.9,6.1-23.9,8c-4,0.9-8.4,1.5-12.7,1.5c-4.3,0-8.5-0.7-11.8-2.4
	c-1.6-0.9-3.1-1.9-4-3.2c-0.9-1.2-1.1-2.7-0.8-3.7c0.3-1.1,1.1-1.8,1.8-2.1c0.7-0.4,1.3-0.5,1.6-0.5c1.2-0.2,2.2,0,2.9,0.3
	c0.7,0.3,1,0.7,1.2,1.1c0.3,0.8,0.3,1.3,0.5,1.3c0.1,0,0.2-0.1,0.3-0.3c0.1-0.2,0.2-0.7,0.1-1.3c-0.1-0.6-0.6-1.5-1.6-2
	c-0.9-0.5-2.2-0.8-3.7-0.6c-0.4,0.1-1.2,0.2-2.1,0.7c-0.7,0.4-1.4,1-1.9,1.9c-0.5-0.9-1.3-1.5-1.9-1.9c-0.9-0.5-1.7-0.6-2.1-0.7
	c-1.5-0.2-2.7,0.1-3.7,0.6c-0.9,0.5-1.5,1.3-1.6,2c-0.1,0.6,0,1.1,0.1,1.3c0.1,0.2,0.2,0.3,0.3,0.3c0.2,0,0.2-0.5,0.5-1.3
	c0.2-0.4,0.5-0.8,1.2-1.1c0.7-0.3,1.7-0.5,2.9-0.3c0.3,0.1,1,0.2,1.6,0.5c0.7,0.4,1.5,1.1,1.8,2.1c0.4,1.1,0.1,2.5-0.8,3.7
	c-0.9,1.3-2.3,2.3-4,3.2c-3.3,1.8-7.5,2.5-11.8,2.4c-4.3,0-8.6-0.7-12.7-1.5c-8-1.9-16.7-5.2-23.9-8c-3.2-1.3-6.2-2.4-8.8-3
	c1.4-0.6,3.5-0.7,5.7-0.2c2.7,0.5,5.5,1.5,8.4,2.6c2.9,1.2,5.9,2.3,8.7,3.2c5.6,2.1,12,4,17.6,4.8c2.7,0.4,5.3,0.5,7.2,0.5
	c2-0.1,3.4-0.3,3.9-0.5c2-0.5,3.1-1.2,3.8-1.7c0.6-0.5,0.7-0.9,0.6-1c-0.1-0.2-0.4-0.1-1.1,0.2c-0.7,0.3-1.8,0.7-3.6,1.2
	c-0.5,0.1-1.8,0.4-3.7,0.5c-1.9,0.1-4.3,0.1-7-0.3c-5.4-0.6-11.9-2.3-17.5-4.2c-2.8-1-5.7-2.2-8.5-3.5c-2.8-1.3-5.7-2.3-8.5-2.9
	c-1.4-0.3-2.7-0.5-4-0.4c-1.3,0.1-2.5,0.4-3.4,1c-0.1,0.1-0.2,0.2-0.4,0.3c-2.2-0.3-3.8-0.1-4.6,0.1c-1.4,0.3-2.6,1.2-3.1,2
	c-0.6,0.9-0.8,1.6-0.9,2.2c-0.1,1.1,0.1,1.6,0.2,1.6c0.2,0,0.4-0.4,0.7-1.3c0.4-0.9,1-2.5,3.4-3.1c0.5-0.1,1.6-0.3,3.2-0.2
	c-0.1,0.2-0.2,0.5-0.3,0.7c-0.3,0.7-0.3,1.2-0.4,1.5c-0.2,2.1,0.2,3.4,0.5,4.1c0.3,0.7,0.5,1,0.7,0.9c0.2,0,0.3-0.4,0.2-1.1
	c0-0.8-0.3-2-0.1-3.7c0-0.3,0.1-0.7,0.3-1.2c0.1-0.3,0.3-0.6,0.5-1c0.1,0,0.2,0,0.3,0c2.6,0.4,5.8,1.5,9.4,2.9
	c5.7,2.1,12.4,4.5,18.9,6.2c-1.5-0.1-3.5-0.1-6.2-0.1l-59.4,0.6l-37-0.4c-2.8,0-5.5,0-7.8-0.3c-2.3-0.3-4.5-1-5.3-2.3
	c-0.4-0.6-0.5-1.4-0.4-1.9c0.2-0.6,0.5-1,1-1.3c0.4-0.3,0.9-0.4,1.2-0.4c0.1,0,0.2,0,0.3,0c-0.3,0.2-0.5,0.5-0.8,1
	c-0.1,0.2-0.2,0.6-0.1,0.9c0,0.4,0.2,0.8,0.5,1c0.6,0.6,1.6,0.8,2.5,0.3c0.4-0.2,0.8-0.6,1.1-1c0.3-0.4,0.5-1,0.4-1.7
	c-0.1-0.7-0.5-1.3-1-1.6c-0.5-0.4-1.1-0.6-1.7-0.7c-0.4-0.1-0.8-0.1-1.4-0.1c-0.6,0-1.3,0.2-2,0.7c-0.7,0.5-1.4,1.2-1.7,2.3
	C30.7,312.5,31,313.7,31.6,314.7 M332.4,312.1c-0.2,0.1-0.5,0.2-0.8,0c-0.1-0.1-0.3-0.2-0.4-0.4c-0.1-0.2-0.2-0.4-0.1-0.6
	c0-0.3,0.4-0.6,0.9-0.8c0,0,0,0,0,0c0.2,0.3,0.5,0.7,0.6,1.2C332.6,311.9,332.6,312,332.4,312.1 M37,311.1c0,0.2,0,0.4-0.1,0.6
	c-0.1,0.2-0.3,0.4-0.4,0.4c-0.3,0.2-0.7,0.1-0.8,0c-0.2-0.1-0.2-0.3-0.2-0.5c0.1-0.5,0.5-1,0.6-1.2c0,0,0,0,0,0
	C36.7,310.5,37,310.8,37,311.1 M158.6,309.8c-1.3-1.1-1.2-1.8-0.8-2.1c0.4-0.4,1-0.3,2.1,0.7c0.4,0.3,2.1,1.9,4.7,3
	c2.6,1.1,6,1.4,8.3,1.3c0.9-0.1,1.4-0.1,1.4,0c0,0.1-0.4,0.2-1.4,0.4c-2.4,0.5-5.9,0.5-8.8-0.3C161.2,311.8,159.1,310.2,158.6,309.8
	 M203.9,312.6c-2.9,0.9-6.4,0.8-8.8,0.3c-0.9-0.2-1.4-0.3-1.3-0.4c0-0.1,0.5,0,1.4,0c2.4,0.2,5.7-0.2,8.3-1.3c2.6-1,4.3-2.6,4.7-3
	c1.1-0.9,1.7-1,2.1-0.7c0.4,0.3,0.4,1.1-0.8,2.1C209,310.2,206.8,311.8,203.9,312.6"/>
<path class="st2" d="M210.8,386.1c-0.2-0.6-0.6-1.1-1-1.6c-0.8-0.9-2-1.5-3.1-1.8c-1.2-0.3-2.3-0.3-3.5-0.2
	c-1.2,0.1-2.3,0.4-3.4,0.9c-1.1,0.4-2.1,0.9-3.1,1.5c-1.8,1-3.5,2.2-5.1,3.5c-2.1-1.2-3.9-2.6-5.5-3.9c0,0,0,0-0.1-0.1
	c3.2-2.1,5.7-3.1,6.9-3.6c2.3-0.9,4.2-1.4,5.8-1.8c1.6-0.3,2.9-0.5,3.9-0.6c1.9-0.2,2.7-0.3,2.8-0.7c0.1-0.3-0.6-0.9-2.8-1.2
	c-1.1-0.1-2.5-0.2-4.3,0.1c-1.8,0.2-3.9,0.7-6.4,1.7c-1.3,0.5-4.3,1.8-7.9,4.5c-3.6-2.6-6.6-3.9-7.9-4.5c-2.5-1-4.6-1.5-6.4-1.7
	c-1.8-0.2-3.2-0.2-4.3-0.1c-2.1,0.3-2.9,0.9-2.8,1.2c0.1,0.4,0.8,0.5,2.8,0.7c1,0.1,2.2,0.3,3.9,0.6c1.6,0.3,3.6,0.9,5.8,1.8
	c1.1,0.5,3.7,1.5,6.9,3.6c0,0,0,0-0.1,0.1c-1.6,1.3-3.4,2.7-5.5,3.9c-1.6-1.2-3.3-2.4-5.1-3.5c-1-0.6-2-1.1-3.1-1.5
	c-1.1-0.4-2.2-0.7-3.4-0.9c-1.2-0.1-2.3-0.1-3.5,0.2c-1.1,0.3-2.3,0.9-3.1,1.8c-0.4,0.5-0.8,1-1,1.6c-0.2,0.6-0.4,1.2-0.4,1.7
	c-0.2,1.2,0,2.5,0.7,3.6c0.7,1.1,1.8,1.8,2.8,2.2c1.1,0.4,2.2,0.6,3.3,0.6c2.2,0.1,4.2-0.3,6.1-0.8c1.9-0.5,3.7-1.2,5.3-2
	c0.8-0.4,1.6-0.8,2.3-1.2c1.4,1.1,2.8,2.2,4.1,3.3c0.6,0.5,1.2,1,1.8,1.5c-1.2,0.9-2.3,1.8-3.5,2.5c-1.1-0.7-2.3-1.3-3.7-1.9
	c-1.7-0.7-3.6-1.3-5.7-1.5c-1-0.1-2.2,0-3.2,0.3c-0.5,0.1-1.1,0.3-1.6,0.6c-0.5,0.3-1,0.7-1.2,1.4c-0.2,0.7,0,1.4,0.4,1.9
	c0.4,0.5,0.8,0.9,1.3,1.2c1,0.6,2.1,0.9,3.2,1.1c2.2,0.4,4.5,0.1,6.5-0.5c1.2-0.3,2.3-0.8,3.4-1.4c1.5,0.9,2.7,1.9,3.7,2.9
	c-1.4,1.5-2.1,2.8-2.4,3.5c-0.3,0.8-0.5,1.6-0.5,2.4c0,0.8,0.2,1.5,0.5,2c0.6,1.1,1.4,1.7,1.9,2.1c0.8,0.4,1.3,0.6,1.5,0.6
	c0.3,0,0.8-0.1,1.5-0.6c0.6-0.4,1.4-0.9,1.9-2.1c0.3-0.6,0.5-1.3,0.5-2c0-0.8-0.2-1.6-0.5-2.4c-0.3-0.7-1-2-2.4-3.5
	c1-0.9,2.2-1.9,3.7-2.9c1.1,0.6,2.2,1.1,3.4,1.4c2.1,0.6,4.3,0.8,6.5,0.5c1.1-0.2,2.2-0.5,3.2-1.1c0.5-0.3,1-0.7,1.3-1.2
	c0.4-0.5,0.6-1.2,0.4-1.9c-0.2-0.7-0.7-1.1-1.2-1.4c-0.5-0.3-1-0.5-1.6-0.6c-1-0.3-2.2-0.4-3.2-0.3c-2.1,0.2-4,0.8-5.7,1.5
	c-1.3,0.6-2.6,1.2-3.7,1.9c-1.2-0.7-2.4-1.6-3.5-2.5c0.6-0.5,1.2-1,1.8-1.5c1.4-1.1,2.7-2.2,4.1-3.3c0.7,0.4,1.5,0.8,2.3,1.2
	c1.7,0.8,3.4,1.5,5.3,2c1.9,0.5,4,0.9,6.1,0.8c1.1,0,2.2-0.2,3.3-0.6c1.1-0.4,2.2-1.1,2.8-2.2c0.7-1.1,0.8-2.4,0.7-3.6
	C211.1,387.2,211,386.6,210.8,386.1 M174.1,389.6c-1.5,0.8-3.2,1.5-5,2c-1.8,0.5-3.7,0.9-5.6,0.9c-0.9,0-1.9-0.2-2.8-0.5
	c-0.9-0.3-1.6-0.8-2-1.6c-0.4-0.7-0.6-1.7-0.5-2.6c0.1-1,0.4-1.8,1.1-2.5c0.6-0.7,1.5-1.1,2.5-1.4c1-0.2,2-0.3,3.1-0.2
	c2.1,0.2,4.1,1.1,6,2.1c1.6,0.9,3.1,1.9,4.6,3C175,389.1,174.5,389.4,174.1,389.6 M175.7,399.4c-2,0.6-4.1,0.8-6.1,0.4
	c-1-0.2-2-0.5-2.9-1c-0.4-0.3-0.8-0.6-1.1-0.9c-0.3-0.4-0.4-0.8-0.3-1.1c0.1-0.3,0.4-0.7,0.8-0.9c0.4-0.2,0.8-0.4,1.3-0.5
	c0.9-0.3,1.9-0.3,2.9-0.2c1.9,0.2,3.7,0.8,5.4,1.6c1,0.5,2,1,2.9,1.6C177.6,398.7,176.6,399.1,175.7,399.4 M192.5,396.7
	c1.6-0.7,3.5-1.4,5.4-1.6c1-0.1,1.9,0,2.9,0.2c0.5,0.1,0.9,0.3,1.3,0.5c0.4,0.2,0.7,0.6,0.8,0.9c0.1,0.3-0.1,0.7-0.3,1.1
	c-0.3,0.4-0.7,0.7-1.1,0.9c-0.9,0.5-1.9,0.8-2.9,1c-2,0.4-4.2,0.1-6.1-0.4c-1-0.3-1.9-0.7-2.8-1.1
	C190.4,397.7,191.4,397.2,192.5,396.7 M186,405.7c0.5,1.3,0.5,2.4,0.2,3.2c-0.3,0.8-0.9,1.4-1.3,1.8c-0.4,0.3-0.6,0.6-0.8,0.8
	c-0.2-0.2-0.5-0.5-0.8-0.8c-0.4-0.4-0.9-1-1.3-1.8c-0.3-0.8-0.4-1.9,0.2-3.2c0.2-0.5,0.8-1.7,2-3C185.2,404.1,185.8,405.2,186,405.7
	 M186.6,397.4c0.3,0.2,0.6,0.4,0.9,0.6c-1.3,0.9-2.5,1.7-3.4,2.6c-0.9-0.9-2.1-1.8-3.4-2.6c0.3-0.2,0.6-0.4,0.9-0.6
	c0.9-0.6,1.7-1.2,2.6-1.9C184.9,396.1,185.7,396.8,186.6,397.4 M186.1,392.8c-0.7,0.6-1.4,1.1-2.1,1.7c-0.7-0.5-1.4-1.1-2.1-1.7
	c-1.2-1-2.5-2-3.7-3c1.9-1.1,3.7-2.4,5.2-3.5c0.2-0.2,0.4-0.3,0.6-0.5c0.2,0.2,0.4,0.3,0.6,0.5c1.5,1.2,3.2,2.4,5.2,3.5
	C188.5,390.7,187.3,391.8,186.1,392.8 M209.3,390.5c-0.4,0.7-1.2,1.2-2,1.6c-0.9,0.3-1.8,0.4-2.7,0.5c-1.9,0-3.8-0.3-5.6-0.9
	c-1.8-0.5-3.4-1.2-5-2c-0.5-0.2-1-0.5-1.4-0.8c1.5-1.1,3-2.1,4.6-3c1.9-1,3.9-1.9,6-2.1c1-0.1,2.1-0.1,3.1,0.2
	c1,0.2,1.9,0.7,2.5,1.4c0.6,0.7,1,1.6,1.1,2.5C209.9,388.8,209.7,389.7,209.3,390.5"/>
<path class="st2" d="M180.4,368.3h6.6l123.2-0.7c15.7-0.1,15.8-0.2,0.3-0.3l-123.4-0.7h-6.6l-123.4,0.7c-15.6,0.1-15.5,0.2,0.3,0.3
	L180.4,368.3z"/>
<path class="st2" d="M322.7,374.7c-0.1-0.4-0.3-0.6-0.5-0.8c-0.1-0.1-0.2-0.1-0.3-0.1c-0.1,0.1,0.2,0.3,0.2,0.9
	c0,0.3-0.2,0.6-0.6,0.7c-0.4,0.1-1-0.1-1.6-0.4c-1.2-0.8-2.5-2.7-5-4c-1.2-0.7-2.8-1.2-4.6-1.3c-1.8-0.1-3.5,0-5.5,0L184.2,370
	l-120.7-0.4c-2,0-3.8,0-5.5,0c-1.8,0.1-3.3,0.6-4.6,1.3c-2.5,1.4-3.8,3.3-5,4c-0.6,0.4-1.2,0.5-1.6,0.5c-0.4-0.1-0.6-0.4-0.6-0.7
	c0-0.6,0.3-0.8,0.2-0.9c0,0-0.1,0-0.3,0.1c-0.1,0.1-0.4,0.3-0.5,0.8c-0.1,0.4,0.1,1.1,0.9,1.4c0.7,0.3,1.5,0.1,2.3-0.4
	c0.8-0.4,1.5-1.1,2.3-1.8c0.8-0.7,1.7-1.4,2.8-2c1.1-0.6,2.5-1,4.1-1.1c1.6,0,3.5,0,5.5,0l44.6-0.2c0,0-0.1,0-0.1,0.1
	c-1.2,0.6-2.5,1.4-3.4,2.6c-0.9,1.2-1.4,2.7-1.5,4.3c0,1.6,0.4,3.2,1.4,4.5c0.9,1.3,2.3,2.4,3.8,2.9c1.5,0.6,3.2,0.8,4.7,0.7
	c1.6-0.1,3.2-0.5,4.6-1c2.9-1.1,5.6-2.6,8.3-4c2.6-1.4,5.2-2.8,7.7-3.9c2.6-1.2,5.4-2.2,8.2-2.9c2.7-0.6,5.4-0.8,7.8-0.7
	c-4.1,1-8.1,2.6-11.8,4.4c-1.9,0.8-3.9,1.8-5.8,2.9c-1.9,1-3.9,2-5.8,2.9c-3.9,1.8-8,3.3-11.7,3.9c-1.8,0.3-3.6,0.3-5.1,0.1
	c-1.5-0.2-2.8-0.7-3.8-1.3c-2-1.3-3-2.8-3.4-3.4c-0.7-1-1.1-2-1.5-2.8c-0.4-0.8-0.7-1.4-0.9-1.9c-0.5-0.9-0.9-1.3-1.3-1.2
	c-0.3,0.1-0.6,0.6-0.5,1.7c0,0.6,0.2,1.3,0.5,2.2c0.3,0.9,0.8,2,1.6,3.3c0.2,0.4,0.7,1,1.4,1.7c0.7,0.7,1.7,1.6,3,2.4
	c1.3,0.7,3,1.3,4.8,1.5c1.8,0.2,3.8,0,5.8-0.3c4-0.8,8-2.5,12-4.5c2-1,3.9-2.1,5.8-3.2c1.9-1.1,3.7-2.2,5.6-3.1
	c3.8-1.7,8-3.1,12.2-3.9c4.2-0.8,8.5-1.1,12.3-0.9c3.8,0.2,7.1,0.9,9.6,1.6c2.5,0.7,4.2,1.5,4.9,1.8c2.4,1,3.8,1.9,4.7,2.3
	c0.9,0.4,1.3,0.6,1.6,0.3c0.3-0.2,0.3-0.8-0.4-1.8c-0.8-0.9-2.3-2.2-4.9-3.3c-0.8-0.3-2.6-1.1-5.3-1.7c-2.7-0.7-6.2-1.2-10.2-1.2
	c-3,0-6.1,0.2-9.4,0.8c-1.1-0.2-2.2-0.3-3.4-0.3c-2.6-0.1-5.5,0.2-8.3,0.9c-2.9,0.7-5.7,1.8-8.4,3c-2.5,1.1-5.1,2.5-7.7,3.9
	c-2.6,1.4-5.3,2.8-8.2,3.7c-1.4,0.5-2.9,0.8-4.3,0.8c-1.4,0.1-2.9-0.1-4.2-0.7c-1.3-0.5-2.4-1.4-3.1-2.5c-0.7-1.1-1-2.4-1-3.6
	c0.1-1.2,0.5-2.4,1.2-3.3c0.7-0.9,1.6-1.5,2.6-1.9c2-0.8,4.2-0.7,5.6,0c0.7,0.3,1.2,0.8,1.4,1.3c0.3,0.5,0.3,1,0.3,1.5
	c0,0.2-0.1,0.5-0.1,0.7c-0.1,0.2-0.1,0.4-0.2,0.6c-0.1,0.3-0.3,0.5-0.4,0.7c-0.8,1-2,1.4-2.8,1.4c-0.8,0-1.2-0.2-1.5-0.6
	c-0.3-0.4-0.5-0.8-0.7-1.1c-0.2-0.3-0.3-0.4-0.5-0.4c-0.2,0-0.4,0.1-0.5,0.5c-0.1,0.3-0.3,0.9,0,1.8c0.1,0.4,0.4,1,1,1.4
	c0.5,0.4,1.3,0.7,2.1,0.8c0.8,0.1,1.6-0.1,2.5-0.4c0.8-0.3,1.7-0.9,2.4-1.8c0.2-0.3,0.5-0.7,0.8-1.3c0.1-0.3,0.2-0.6,0.3-1
	c0.1-0.3,0.1-0.7,0.2-1.1c0-0.8-0.1-1.9-0.7-2.8c-0.5-0.9-1.3-1.6-2.3-2.1l68.6-0.2l68.3,0.2c-1,0.5-1.8,1.2-2.3,2.1
	c-0.6,1-0.7,2-0.7,2.8c0,0.4,0.1,0.8,0.2,1.1c0.1,0.3,0.2,0.6,0.3,1c0.2,0.6,0.5,1,0.8,1.3c0.7,0.9,1.6,1.5,2.4,1.8
	c0.8,0.3,1.7,0.5,2.5,0.4c0.8-0.1,1.5-0.4,2.1-0.8c0.5-0.4,0.8-1,1-1.4c0.3-0.9,0.1-1.5,0-1.8c-0.1-0.3-0.3-0.5-0.5-0.5
	c-0.2,0-0.3,0.1-0.5,0.4c-0.2,0.3-0.3,0.7-0.7,1.1c-0.3,0.4-0.7,0.6-1.5,0.6c-0.8,0-2-0.5-2.8-1.4c-0.1-0.2-0.3-0.4-0.4-0.7
	c-0.1-0.1-0.1-0.3-0.2-0.6c-0.1-0.2-0.1-0.5-0.1-0.7c0-0.5,0-1,0.3-1.5c0.3-0.5,0.7-1,1.4-1.3c1.4-0.7,3.6-0.8,5.6,0
	c1,0.4,1.9,1,2.6,1.9c0.7,0.9,1.2,2,1.2,3.3c0.1,1.2-0.3,2.5-1,3.6c-0.7,1.1-1.8,2-3.1,2.5c-1.3,0.5-2.7,0.7-4.2,0.7
	c-1.5-0.1-2.9-0.4-4.3-0.8c-2.8-0.9-5.5-2.4-8.2-3.7c-2.6-1.4-5.2-2.7-7.7-3.9c-2.7-1.2-5.5-2.3-8.4-3c-2.9-0.7-5.8-1-8.3-0.9
	c-1.2,0-2.4,0.2-3.5,0.3c-3.2-0.6-6.4-0.8-9.4-0.8c-4,0-7.5,0.6-10.2,1.2c-2.7,0.7-4.6,1.4-5.3,1.7c-2.6,1.1-4.1,2.4-4.9,3.3
	c-0.8,1-0.7,1.6-0.4,1.8c0.3,0.2,0.7,0.1,1.6-0.3c0.9-0.4,2.3-1.3,4.7-2.3c0.7-0.3,2.4-1.1,4.9-1.8c2.5-0.7,5.8-1.4,9.7-1.6
	c3.8-0.2,8.1,0.1,12.3,0.9c4.2,0.8,8.5,2.2,12.2,3.9c1.9,0.9,3.7,2,5.6,3.1c1.9,1.1,3.8,2.2,5.8,3.2c3.9,2,8,3.7,12,4.5
	c2,0.4,3.9,0.5,5.8,0.3c1.8-0.2,3.5-0.7,4.8-1.5c1.3-0.7,2.3-1.6,3-2.4c0.7-0.8,1.1-1.4,1.4-1.7c0.8-1.3,1.3-2.4,1.6-3.3
	c0.3-0.9,0.4-1.7,0.5-2.2c0.1-1.1-0.1-1.6-0.5-1.7c-0.4-0.1-0.8,0.2-1.3,1.2c-0.3,0.5-0.6,1.1-1,1.9c-0.4,0.8-0.9,1.7-1.5,2.8
	c-0.4,0.6-1.3,2.1-3.4,3.4c-1,0.6-2.3,1.1-3.8,1.3c-1.5,0.2-3.3,0.2-5.1-0.1c-3.7-0.6-7.7-2.1-11.7-3.9c-2-0.9-3.9-1.9-5.8-2.9
	c-1.9-1.1-3.9-2-5.8-2.9c-3.6-1.8-7.6-3.3-11.8-4.4c2.4-0.2,5.1,0,7.8,0.7c2.8,0.6,5.6,1.7,8.2,2.9c2.5,1.1,5.1,2.5,7.7,3.9
	c2.6,1.4,5.3,2.9,8.3,4c1.5,0.5,3,0.9,4.6,1c1.6,0.1,3.2-0.1,4.7-0.7c1.5-0.6,2.9-1.6,3.8-2.9c0.9-1.3,1.4-2.9,1.4-4.5
	c0-1.6-0.6-3.1-1.5-4.3c-0.9-1.2-2.1-2.1-3.4-2.6c0,0-0.1,0-0.1-0.1l44.9,0.2c2,0,3.9,0,5.4,0c1.6,0.1,2.9,0.5,4.1,1.1
	c1.1,0.6,2,1.3,2.8,2c0.8,0.7,1.5,1.4,2.3,1.8c0.8,0.4,1.6,0.6,2.3,0.3C322.6,375.9,322.8,375.1,322.7,374.7"/>
<path class="st2" d="M51.8,211.9c0.5-1.1,0.7-1,0.5,0.2c-0.6,3.1-1.8,8.8-2.1,9.5c-0.4,1-1,1.1-1.7,0.8c-0.7-0.3-1.1-0.8-0.7-1.7
	L51.8,211.9 M316.8,211.9c-0.5-1.1-0.7-1.1-0.5,0.1c0.6,3.1,1.8,8.8,2.1,9.5c0.4,1,1,1.1,1.7,0.8c0.7-0.3,1.1-0.8,0.7-1.7
	L316.8,211.9z M347.6,206c1,1.4,1.5,3.2,1.6,5c0.1,1.9-0.3,3.9-1.3,5.8c-1,1.9-2.7,3.6-4.7,4.7c-2.1,1.1-4.4,1.7-6.9,1.8
	c-2.5,0.1-5.1-0.4-7.4-1.9c-2.3-1.4-4.1-3.4-5.6-5.6c-1.5-2.2-2.9-4.5-4.2-6.8c-2.7-4.6-5.7-9.3-10-12.6c-2.2-1.7-4.6-2.9-7.2-3.7
	c-2.6-0.8-5.4-1.1-8.1-1.2c-5.5,0-10.9,1-15.9,2.6c-2.5,0.8-5,1.8-7.5,2.9c-2.5,1.1-5,2.3-7.5,3.5c-5,2.4-10.1,4.8-15.2,7.1
	l-3.5,1.5l-0.4,0.1c-0.1,0.1-0.4,0.1-0.1,0.2l0.7,0.4l2.8,1.5c5.5-2.4,10.8-5,15.9-7.4c11.9-5.6,30.8-14.4,43.4-5.4
	c6.5,4.6,9.2,14.9,2.9,20.9c-2.8,2.6-6.4,3.7-10.2,3.6c-5.3-0.2-10.7-2.2-15.7-3.7c-2.8-0.9-5.8-2-8.7-2.2c-3.6-0.2-6.8,2.2-5.1,5.1
	c0.2,0.4-1.5,1-1.8,0.5c-1.6-2.7,1.1-5,3.5-5.9c3.9-1.5,8.5,0.1,12.2,1.3c7.4,2.3,21,8.5,26.1-1c2.4-4.6,1.9-10.6-1.5-14.7
	c-5.2-6.3-14-7.2-21.6-5.9c-13.3,2.3-25.6,9.8-38.3,15.5l2.2,1.2c0.5,0.3,1,0.5,1.5,0.8l-1.5,0.8l-2.5,1.3l-1.8,0.9
	c-1.2,0.6-2.4,1.1-3.6,1.7c-2.4,1-4.8,2-7.2,2.7c-4.8,1.5-9.6,2.2-14,2.2c-2.2,0-4.3-0.1-6.2-0.3c-2-0.1-3.9-0.4-5.6-0.8
	c-3.4-0.8-6.2-1.8-8.4-2.6c-2.2-0.8-3.8-1.3-4.8-1.5c-1.6-0.4-3-0.6-4.2-0.4c-1.3,0.2-2.3,0.7-2.6,1.3c-0.4,0.6-0.2,1.3,0.2,1.8
	c0.4,0.5,0.9,0.7,1.4,0.7c1,0,1.7-0.7,2.1-1c0.4-0.4,0.7-0.5,0.8-0.4c0.1,0.1,0.1,0.4-0.1,1c-0.1,0.3-0.4,0.7-0.8,1.1
	c-0.4,0.4-1,0.8-1.9,1c-0.9,0.1-2.1-0.2-2.9-1.1c-0.4-0.4-0.8-1-0.9-1.7c-0.2-0.7-0.1-1.6,0.3-2.3c0.4-0.7,1-1.3,1.7-1.7
	c0.7-0.4,1.5-0.6,2.3-0.8c1.6-0.3,3.4-0.1,5.2,0.3c1,0.3,2.8,0.8,5,1.6c2.2,0.8,4.9,1.8,8.2,2.6c1.6,0.4,3.4,0.7,5.3,0.9
	c1.9,0.2,4,0.3,6.1,0.3c4.2,0,8.8-0.5,13.5-1.9c2.3-0.7,4.7-1.6,7.1-2.6c1.2-0.5,2.4-1,3.6-1.6l2.9-1.4l0.3-0.1
	c-0.1,0-0.2-0.1-0.3-0.2l-1.1-0.6l-0.8-0.4c-9.5,4.2-19.3,7.3-29.9,6.3c-6.8-0.6-13.6-3.5-19.4-7.8c-4,1.6-8.3,2.5-12.9,2.5
	c-4.6,0-9.1-0.9-13.1-2.6c-2.7,2-5.6,3.7-8.7,5c-9.6,4-19.8,3.4-29.6,0.3c-3.6-1.1-7.1-2.5-10.6-3.9l-0.9,0.5l-1.1,0.6
	c-0.1,0-0.2,0.1-0.3,0.2l0.3,0.1l2.9,1.4c1.2,0.6,2.4,1.1,3.6,1.6c2.4,1,4.7,1.9,7.1,2.6c4.7,1.4,9.3,2,13.5,1.9
	c2.1,0,4.1-0.1,6.1-0.3c1.9-0.2,3.6-0.5,5.3-0.9c3.3-0.8,6-1.8,8.2-2.6c2.2-0.8,3.9-1.4,5-1.6c1.7-0.4,3.6-0.7,5.2-0.3
	c0.8,0.1,1.6,0.4,2.3,0.8c0.7,0.4,1.3,0.9,1.7,1.7c0.4,0.7,0.5,1.6,0.3,2.3c-0.2,0.7-0.5,1.3-0.9,1.7c-0.8,0.9-2,1.2-2.9,1.1
	c-0.9-0.1-1.5-0.6-1.9-1c-0.4-0.4-0.6-0.8-0.8-1.1c-0.3-0.6-0.3-0.9-0.1-1c0.1-0.1,0.4,0.1,0.8,0.4c0.4,0.3,1.2,1,2.1,1
	c0.5,0,1-0.2,1.4-0.7c0.4-0.5,0.6-1.2,0.2-1.8c-0.3-0.6-1.3-1.1-2.6-1.3c-1.2-0.2-2.6,0-4.2,0.4c-1,0.2-2.6,0.7-4.8,1.5
	c-2.2,0.8-5,1.8-8.4,2.6c-1.7,0.4-3.6,0.7-5.6,0.8c-2,0.2-4,0.3-6.2,0.3c-4.4,0-9.2-0.7-14-2.2c-2.4-0.7-4.8-1.7-7.2-2.7
	c-1.2-0.5-2.4-1.1-3.6-1.7l-1.8-0.9l-2.5-1.3l-1.5-0.8c0.4-0.3,1-0.5,1.5-0.8l2.4-1.3c-8.9-3.9-17.5-8.4-26.6-11.9
	c-8.2-3.1-18.8-6.2-27.3-2.6c-8.4,3.6-13.4,16.4-4.6,22.6c7.7,5.5,18.6-0.7,26.4-2.8c3.7-1,7.1-1.7,10.6,0c1.9,0.9,2.8,3.2,1.7,5
	c-0.3,0.5-2,0.6-1.8,0.3c1.8-3.1-2.2-5.7-5-5.5c-4.3,0.2-8.3,1.9-12.4,3.1c-4.6,1.4-9.9,3.3-14.8,2.8c-4.8-0.4-9-3.3-10.4-8
	c-2.6-8.7,3.6-16.6,11.9-18.9c18.6-5,37.2,7.8,53.8,15.1l2.4-1.2l0.7-0.4c0.2-0.1,0-0.1-0.1-0.2l-0.4-0.1l-3.5-1.5
	c-5.1-2.2-10.2-4.7-15.2-7.1c-2.5-1.2-5-2.4-7.5-3.5c-2.5-1.1-5-2.1-7.5-2.9c-5-1.6-10.5-2.6-15.9-2.6c-2.7,0-5.5,0.4-8.1,1.2
	c-2.6,0.8-5.1,2-7.2,3.7c-4.3,3.3-7.3,8-10,12.6c-1.4,2.3-2.7,4.6-4.2,6.8c-1.5,2.2-3.3,4.2-5.6,5.6c-2.3,1.4-4.9,2-7.4,1.9
	c-2.4-0.1-4.8-0.6-6.9-1.8c-2.1-1.1-3.7-2.8-4.7-4.7c-1-1.9-1.4-3.9-1.3-5.8c0.1-1.9,0.7-3.7,1.6-5c1-1.4,2.3-2.3,3.7-2.7
	c2.6-0.7,4.7-0.1,5.8,0.5c0.9,0.5,1.7,1.2,2.2,1.9c0.3,0.4,0.5,0.8,0.7,1.1c0.2,0.4,0.4,0.7,0.5,1.1c0.3,0.8,0.5,1.6,0.5,2.4
	c0,0.8-0.2,1.7-0.7,2.3c-0.9,1.3-2.2,1.8-3.3,2c-1.1,0.1-2.1-0.1-2.8-0.5c-0.8-0.4-1.3-0.9-1.6-1.5c-0.3-0.5-0.4-1-0.4-1.3
	c0-0.7,0.2-1,0.3-0.9c0.2,0,0.3,0.3,0.5,0.8c0.2,0.5,0.7,1.2,1.7,1.5c0.5,0.2,1.2,0.3,1.9,0.1c0.7-0.1,1.5-0.5,1.8-1.2
	c0.4-0.7,0.4-1.7-0.1-2.8c-0.2-0.5-0.6-1.2-1-1.7c-0.4-0.5-0.9-1-1.5-1.3c-0.4-0.2-0.9-0.4-1.6-0.5c-0.3-0.1-0.7-0.1-1.2-0.1
	c-0.4,0-0.9,0.1-1.4,0.2c-0.9,0.3-1.8,0.9-2.6,1.9c-0.7,1-1.2,2.4-1.3,3.9c-0.1,1.5,0.2,3.2,1,4.8c0.8,1.6,2.1,3,3.8,3.9
	c1.7,1,3.8,1.5,6,1.6c2.2,0.1,4.4-0.3,6.4-1.5c2-1.2,3.7-3,5.2-5.1c1.5-2.1,2.9-4.3,4.3-6.6c2.8-4.6,5.9-9.4,10.6-12.9
	c2.3-1.7,4.9-3,7.7-3.8c2.8-0.8,5.6-1.1,8.4-1.1c5.6,0.1,11.1,1.2,16.2,2.9c2.6,0.8,5.1,1.8,7.6,2.8c2.5,1.1,5,2.3,7.6,3.4
	c5,2.3,10.1,4.7,15.3,6.8l1.9,0.8l2.3,0.9l1.6,0.6l0.8,0.3l0.2,0.1c0,0,0.1,0,0.1,0l-0.1,0.1l-0.4,0.2l-3,1.6l-1.3,0.7
	c0.4,0.2,0.9,0.4,1.3,0.5c14.2,5.6,29.7,9.2,43.2-0.3c0.6-0.4,1.2-0.9,1.9-1.4c-3.9-1.8-7.5-4.4-10.5-7.5c0.2,1.2,0.3,2.5,0,3.7
	c-0.2,1.3-0.8,2.6-1.6,3.6c-1.5,2.2-4,3.7-6.7,4.3c-2.7,0.6-5.5,0.3-8.1-0.4c-2.6-0.8-5.1-2-7.5-3.4c-2.4-1.4-4.6-3-6.8-4.8
	c-4.3-3.6-8-7.9-10.5-12.9c-0.2-0.4-0.4-0.8-0.6-1.2c-0.5-0.7-1.2-2.1-2.5-4.7c-0.3-0.5-0.8-1.7-1.7-3.3c-0.9-1.6-2.1-3.6-3.7-5.7
	c-1.6-2.1-3.8-4.2-6.5-5.6c-1.4-0.7-2.8-1.1-4.4-1.2c-1.5-0.1-3.1,0.1-4.5,0.6c-2.7,0.9-5.3,2.8-6.7,5.6c-0.7,1.4-1.1,2.9-1,4.4
	c0,1.5,0.5,3.1,1.2,4.4c1.5,2.7,4.2,4.9,7.2,5.2c1.5,0.2,3-0.1,4.2-0.7c1.3-0.6,2.3-1.6,2.9-2.8c1.3-2.3,1.1-5.3,0-7.3
	c-0.5-1-1.3-1.7-2.2-2.1c-0.9-0.4-1.8-0.5-2.7-0.4c-1.8,0.2-3.1,1.2-3.6,2.1c-0.6,0.9-0.7,1.7-0.7,2.2c0,1.2,0.9,2,1.8,2.4
	c0.9,0.4,1.6,0.4,2.1,0.2c1-0.3,1.4-0.8,1.8-0.7c0.2,0.1,0.3,0.3,0.2,0.7c-0.1,0.4-0.3,1.1-1.2,1.6c-0.8,0.5-2.2,0.8-3.7,0.3
	c-0.8-0.2-1.6-0.7-2.3-1.4c-0.7-0.7-1.3-1.9-1.2-3.2c0-0.7,0.1-2.1,1.2-3.6c1-1.4,3-2.7,5.4-2.9c1.2-0.1,2.5,0,3.8,0.7
	c1.3,0.6,2.4,1.7,3.1,3.1c0.7,1.3,1,2.9,1,4.4c0,1.5-0.4,3.2-1.2,4.6c-0.8,1.4-2.1,2.6-3.7,3.4c-1.5,0.7-3.3,1-5,0.7
	c-1.7-0.2-3.3-1-4.7-2c-1.3-1.1-2.5-2.4-3.3-3.9c-0.8-1.5-1.3-3.2-1.3-4.9c0-1.7,0.4-3.4,1.2-4.9c1.5-3,4.3-5,7.2-6
	c1.5-0.5,3.1-0.8,4.8-0.7c1.6,0.1,3.2,0.5,4.7,1.2c2.9,1.3,5.3,3.5,7.1,5.6c0.3,0.4,0.6,0.8,0.9,1.1c0.1,0.1,0.2,0.3,0.4,0.5
	c0,0,7.1,14,8.7,16.2c0,0,0,0,0,0c1.8,2.9,4.1,5.5,6.6,7.8c-1-1.7-1.6-3.5-1.7-5.4c-0.2-2.8,0.6-5.4,2.1-7.4c1.5-2,3.5-3.2,5.4-3.7
	c1.9-0.5,3.6-0.5,4.9-0.2c1.3,0.2,2.2,0.6,2.7,0.8c0.9,0.4,1.7,0.8,2.4,1.5c0.3,0.3,0.6,0.7,0.8,1.2c0.2,0.5,0.3,1,0.2,1.5
	c-0.2,1-0.9,1.6-1.4,1.9c-0.6,0.3-1.2,0.4-1.8,0.3c-0.5-0.1-0.9-0.4-1.1-0.7c-0.2-0.3-0.3-0.5-0.4-0.7c-0.1-0.4,0-0.6,0.2-0.6
	c0.1-0.1,0.3,0,0.6,0.2c0.2,0.1,0.6,0.3,0.9,0.3c0.2,0,0.4-0.1,0.6-0.3c0.2-0.2,0.4-0.4,0.3-0.6c0-0.2-0.1-0.5-0.5-0.8
	c-0.4-0.4-1-0.7-1.7-1c-0.4-0.2-1.2-0.5-2.3-0.7c-1.1-0.2-2.4-0.3-4,0.1c-1.5,0.4-3.2,1.3-4.4,2.9c-1.2,1.5-2,3.7-1.9,6.1
	c0.1,2.3,1.1,4.8,2.7,6.9c1.3,1.6,2.9,3.1,4.7,4.4c0.5,0.3,1,0.6,1.5,0.9c2.3,1.4,4.7,2.5,7.2,3.1c2.5,0.7,5,0.9,7.3,0.3
	c2.3-0.5,4.4-1.9,5.6-3.7c0.6-0.9,1.1-1.9,1.2-2.9c0.2-1.1,0.1-2.1-0.1-3.1c-0.5-2-1.8-3.6-3.4-4.5c-1.7-0.9-3.6-1.3-5.2-1.1
	c-1.7,0.2-3,1.2-3.8,2.3c-0.8,1.2-1.1,2.5-0.9,3.7c0.2,1.2,0.7,2.2,1.3,3c0.6,0.7,1.3,1.2,1.9,1.4c0.6,0.2,1.2,0.3,1.6,0.3
	c1.3,0,2.4-0.7,3.1-1.6c0.1-0.2,0.2-0.4,0.3-0.6c0-0.1,0.1-0.2,0.1-0.3c0.3-0.9,0.3-1.5,0.2-1.9c-0.1-0.3-0.2-0.6-0.3-0.9
	c-0.1-0.2-0.3-0.4-0.5-0.5c-0.4-0.3-0.8-0.4-1.2-0.4c-0.9,0-1.6,0.3-1.9,0.6c-0.8,0.6-0.8,1.3-1.1,1.3c-0.1,0-0.3-0.1-0.5-0.5
	c-0.1-0.4-0.2-1.1,0.4-1.9c0.5-0.8,1.6-1.5,3.1-1.6c0.8,0,1.7,0.1,2.5,0.7c0.4,0.3,0.8,0.7,1.1,1.2c0.3,0.4,0.5,0.9,0.6,1.5
	c0.1,0.6,0.3,1.9-0.3,3.2c-0.1,0.2-0.2,0.4-0.3,0.7c0,0.1-0.1,0.2-0.2,0.3c0,0-0.1,0.1-0.1,0.1c0,0.1-0.1,0.1-0.1,0.2
	c-0.5,0.7-1.2,1.3-2,1.8c-0.8,0.5-1.8,0.8-2.9,0.8c-0.6,0-1.5-0.1-2.4-0.5c-0.9-0.4-2-1-2.8-2.1c-0.8-1-1.5-2.4-1.7-4.1
	c-0.2-1.7,0.2-3.6,1.4-5.2c1.1-1.6,3.1-2.8,5.2-3.1c1.1-0.2,2.2-0.1,3.3,0.1c1,0.2,1.9,0.6,2.8,1.1c-3.1-5.1-4.8-11.1-4.8-17.5
	c0-0.9,0-1.8,0.1-2.7c0,0,0,0,0,0c0.1-1.8,0.6-5.8,2.4-10.2c0.3-0.7,0.6-1.4,0.9-2c0-0.1,0.1-0.1,0.1-0.2c5.6-11.3,17.2-19,30.6-19
	c12.5,0,23.5,6.8,29.5,16.9c0,0,0,0.1,0,0.1c0.4,0.6,0.7,1.3,1,1.9c0.1,0.1,0.1,0.3,0.2,0.4c0.3,0.6,0.6,1.2,0.8,1.9
	c1.8,4.5,2.3,8.5,2.5,10.3c0.1,0.9,0.1,1.8,0.1,2.7c0,6.4-1.8,12.4-4.8,17.5c0.9-0.5,1.9-0.8,2.8-1.1c1.1-0.2,2.2-0.3,3.3-0.1
	c2.2,0.3,4.1,1.5,5.2,3.1c1.2,1.6,1.6,3.5,1.4,5.2c-0.2,1.7-0.9,3.1-1.7,4.1c-0.9,1.1-1.9,1.8-2.8,2.1c-0.9,0.4-1.8,0.5-2.4,0.5
	c-1,0-2-0.3-2.9-0.8c-0.8-0.5-1.5-1.1-2-1.8c0-0.1-0.1-0.1-0.1-0.2c0-0.1-0.1-0.1-0.1-0.2c-0.1-0.1-0.1-0.2-0.2-0.3
	c-0.1-0.2-0.2-0.4-0.3-0.7c-0.6-1.4-0.5-2.6-0.3-3.2c0.1-0.6,0.3-1.1,0.6-1.5c0.3-0.5,0.7-0.9,1.1-1.2c0.9-0.6,1.8-0.8,2.5-0.7
	c1.5,0.1,2.6,0.8,3.1,1.6c0.5,0.8,0.5,1.5,0.4,1.9c-0.1,0.4-0.3,0.5-0.5,0.5c-0.3,0-0.4-0.7-1.1-1.3c-0.4-0.3-1.1-0.6-1.9-0.6
	c-0.4,0-0.9,0.2-1.2,0.4c-0.2,0.1-0.3,0.3-0.5,0.5c-0.1,0.3-0.3,0.6-0.3,0.9c-0.1,0.4-0.2,1,0.2,1.9c0,0.1,0.1,0.2,0.1,0.3
	c0.1,0.2,0.2,0.4,0.3,0.6c0.7,0.9,1.8,1.6,3.1,1.6c0.4,0,0.9,0,1.6-0.3c0.6-0.2,1.3-0.7,1.9-1.4c0.6-0.8,1.2-1.8,1.3-3
	c0.2-1.2-0.1-2.5-0.9-3.7c-0.8-1.2-2.2-2.1-3.8-2.3c-1.6-0.3-3.6,0.1-5.2,1.1c-1.7,0.9-3,2.5-3.4,4.5c-0.2,1-0.3,2.1-0.1,3.1
	c0.2,1,0.6,2,1.2,2.9c1.3,1.8,3.3,3.2,5.6,3.7c2.3,0.6,4.9,0.4,7.3-0.3c2.5-0.7,4.9-1.8,7.2-3.1c0.5-0.3,1-0.6,1.5-0.9
	c1.8-1.3,3.4-2.7,4.7-4.4c1.6-2.1,2.6-4.5,2.7-6.9c0.1-2.3-0.6-4.5-1.9-6.1c-1.2-1.6-2.9-2.5-4.4-2.9c-1.5-0.4-2.9-0.3-4-0.1
	c-1.1,0.2-1.8,0.5-2.3,0.7c-0.7,0.3-1.4,0.7-1.7,1c-0.4,0.4-0.5,0.7-0.5,0.8c0,0.2,0.1,0.5,0.3,0.6c0.2,0.2,0.4,0.3,0.6,0.3
	c0.4,0.1,0.7-0.1,0.9-0.3c0.2-0.1,0.4-0.2,0.6-0.2c0.1,0.1,0.3,0.2,0.2,0.6c0,0.2-0.1,0.4-0.4,0.7c-0.2,0.3-0.6,0.6-1.1,0.7
	c-0.5,0.1-1.1,0.1-1.8-0.3c-0.6-0.3-1.3-0.9-1.4-1.9c-0.1-0.5,0-1,0.2-1.5c0.2-0.5,0.5-0.9,0.8-1.2c0.7-0.7,1.5-1.1,2.4-1.5
	c0.5-0.2,1.4-0.6,2.7-0.8c1.3-0.2,3-0.3,4.9,0.2c1.9,0.5,3.9,1.8,5.4,3.7c1.5,1.9,2.3,4.6,2.1,7.4c-0.1,1.9-0.8,3.7-1.7,5.4
	c1.8-1.6,3.4-3.4,4.8-5.3c1-1.5,1.8-3,2.7-4.5c2.3-4,4.4-8.2,6.8-12.2c2.3-3.8,5.2-7.3,9.3-9.2c1.5-0.7,3.1-1.1,4.7-1.2
	c1.6-0.1,3.3,0.1,4.8,0.7c2.8,1,5.6,3,7.1,5.9c0.8,1.5,1.2,3.1,1.2,4.8c0,1.7-0.4,3.4-1.2,4.9c-0.8,1.5-1.9,2.8-3.3,3.9
	c-1.3,1.1-3,1.8-4.7,2.1c-1.7,0.3-3.5,0-5-0.7c-1.6-0.7-2.9-1.9-3.7-3.3c-0.9-1.4-1.2-3.1-1.3-4.6c0-1.5,0.3-3.1,0.9-4.4
	c0.7-1.3,1.8-2.5,3-3.1c1.3-0.6,2.7-0.8,3.8-0.7c2.5,0.2,4.4,1.4,5.4,2.9c1.1,1.5,1.2,2.9,1.2,3.6c0,1.3-0.5,2.5-1.2,3.2
	c-0.7,0.8-1.5,1.2-2.3,1.4c-1.5,0.5-2.9,0.2-3.7-0.3c-0.9-0.6-1.1-1.2-1.2-1.6c-0.1-0.4,0.1-0.6,0.2-0.7c0.4-0.2,0.8,0.4,1.8,0.7
	c0.5,0.1,1.3,0.1,2.1-0.2c0.9-0.4,1.8-1.2,1.8-2.4c0-0.5,0-1.3-0.7-2.2c-0.6-0.9-1.9-1.8-3.6-2.1c-0.9-0.1-1.8,0-2.7,0.3
	c-0.9,0.4-1.7,1.1-2.2,2.1c-1.1,1.9-1.3,4.9-0.1,7.2c0.6,1.2,1.6,2.2,2.9,2.8c1.3,0.6,2.7,0.9,4.2,0.8c3-0.3,5.7-2.5,7.2-5.1
	c0.8-1.3,1.2-2.9,1.3-4.4c0-1.5-0.3-3.1-1-4.5c-1.4-2.8-4-4.7-6.7-5.6c-1.4-0.5-2.9-0.7-4.5-0.6c-1.5,0.1-3,0.5-4.4,1.2
	c-2.7,1.3-4.9,3.5-6.5,5.5c-1.7,2.1-2.9,4.1-3.8,5.7c-0.9,1.6-1.4,2.8-1.7,3.4c-1.3,2.6-2.9,5.6-3.1,6c-2.5,5-6.2,9.4-10.5,12.9
	c-2.1,1.8-4.4,3.4-6.8,4.8c-2.4,1.4-4.8,2.7-7.5,3.4c-2.6,0.8-5.4,1.1-8.1,0.5c-2.7-0.6-5.1-2.1-6.7-4.3c-0.8-1.1-1.3-2.3-1.6-3.6
	c-0.2-1.2-0.2-2.5,0-3.7c-2.9,3-6.4,5.6-10.2,7.4c5.5,4.3,12,7.3,19,7.6c9.5,0.5,18.7-2.3,27.6-6l-1.8-1l-3-1.6l-0.4-0.2l-0.1,0
	c0,0,0,0,0.1,0l0.2-0.1l0.8-0.3l1.6-0.6l2.3-0.9l1.9-0.8c5.1-2.1,10.2-4.5,15.3-6.8c2.5-1.2,5-2.3,7.5-3.4c2.5-1.1,5.1-2,7.6-2.8
	c5.1-1.7,10.6-2.8,16.2-2.9c2.8,0,5.7,0.3,8.4,1.1c2.7,0.8,5.4,2.1,7.7,3.8c4.6,3.4,7.8,8.3,10.6,12.9c1.4,2.3,2.8,4.6,4.3,6.6
	c1.5,2,3.2,3.9,5.2,5c2,1.2,4.2,1.6,6.4,1.5c2.2-0.1,4.3-0.6,6-1.6c1.7-1,3-2.4,3.8-3.9c0.8-1.6,1.1-3.3,1-4.8
	c-0.1-1.5-0.6-2.9-1.3-3.9c-0.7-1-1.6-1.6-2.6-1.9c-0.4-0.1-0.9-0.2-1.4-0.2c-0.4,0-0.8,0-1.2,0.1c-0.7,0.1-1.2,0.3-1.6,0.5
	c-0.6,0.3-1.1,0.8-1.5,1.3c-0.4,0.5-0.7,1.2-1,1.7c-0.5,1.2-0.5,2.2-0.1,2.8c0.4,0.7,1.1,1.1,1.8,1.2c0.7,0.1,1.4,0.1,1.9-0.1
	c1-0.4,1.5-1.1,1.7-1.5c0.2-0.5,0.3-0.8,0.5-0.8c0.1,0,0.3,0.3,0.3,0.9c0,0.3-0.1,0.8-0.4,1.3c-0.3,0.5-0.8,1.1-1.6,1.5
	c-0.7,0.4-1.7,0.6-2.8,0.5c-1.1-0.1-2.4-0.6-3.3-2c-0.4-0.7-0.7-1.5-0.7-2.3c0-0.8,0.2-1.6,0.5-2.4c0.1-0.4,0.3-0.8,0.5-1.1
	c0.2-0.4,0.4-0.7,0.7-1.1c0.6-0.8,1.3-1.4,2.2-1.9c1.1-0.6,3.2-1.2,5.8-0.5C345.3,203.6,346.6,204.6,347.6,206 M184.3,211.8
	c17.8,0,32.3-14.5,32.3-32.3s-14.5-32.3-32.3-32.3c-17.8,0-32.3,14.5-32.3,32.3S166.5,211.8,184.3,211.8"/>
<path class="st2" d="M184.3,149.6c-16.5,0-29.9,13.4-29.9,29.9c0,16.5,13.4,29.9,29.9,29.9c16.5,0,29.9-13.4,29.9-29.9
	C214.2,163,200.8,149.6,184.3,149.6"/>
<path class="st3" d="M191.3,184.9l1.7-1.4c0.7,0.8,1.6,1.5,2.9,2l10.2-8.7l-0.6-0.8l-8.9,6.7l-0.4-0.5l8.7-7l-0.5-0.6l-9,6.6
	l-0.5-0.6l8.9-6.8l-0.5-0.6l-9.1,6.5l-0.4-0.6l8.8-6.9l-0.5-0.6l-11.1,7.4c0,0,0.1,1.7,1.1,3.4l-1.8,1.2l0,0c-1.3-1-0.8,0.5-0.8,0.5
	l0,0l-20.9,14.2c0,0-1.2,3.2,2.5,3.4l19.4-16.2C191.8,186.3,191.3,185.1,191.3,184.9 M191.8,179.6l3.8-2.6l-2.9,2.4l3.5,4.7
	l-0.7,0.5C192.3,183.1,191.8,179.6,191.8,179.6 M171,198.1l14.7-10.1l-14.6,11.4C171.1,199.3,170.5,198.8,171,198.1"/>
<path class="st3" d="M170.3,174.1c-1.7-0.6-5.9-1.3-7.3,0.5c-1.4,1.9,1.3,8.2,5.2,9.7c3.1,1.1,5-0.3,5.8-1.1l1.9,1.6l0,0
	c-0.5,1.5,0.7,0.6,0.7,0.6l0,0l21,16.7c0,0,3.4,0.2,2.4-3.4L177.7,184c0.4-1.4-0.7-0.6-0.8-0.5l-2.1-1.3
	C177.3,177.4,171.9,174.6,170.3,174.1 M196.6,200l-15.4-12l16.5,11.6C197.8,199.5,197.5,200.2,196.6,200 M172.6,183.3
	c-2.5,1.3-7.8,0.1-9.1-7.4l8.7,6.2c0,0,2.1-0.8,2.4-3.3C174.6,178.8,175.1,181.9,172.6,183.3"/>
<path class="st3" d="M176.4,173.2c-2.8-2.4-3.5-5.3-3.5-8.3c0-1.9,0.6-5.4,3.5-7.8c2.4-2.1,5.2-2.9,9.3-2.9c1.6,0,2.9,0.2,4,0.3
	c1.3,0.2,1.9,0.3,2.8,0.4c0.3,0,0.3,0.2,0.3,0.4c0,0.2-0.1,0.9-0.1,1.9c-0.1,0.9,0,2.6-0.1,3.3c0,0.4-0.1,0.7-0.3,0.7
	c-0.2,0-0.3-0.2-0.3-0.6c0-0.6-0.1-1.7-1.1-2.8c-1-1-3-1.8-5.7-1.8c-1.7,0-3,0.4-4.1,1.3c-1.7,1.5-2.5,4.1-2.5,7.1
	c0,5.8,3.2,9.7,7.9,9.7c2.3,0,3.7-0.2,4.8-1.4c0.4-0.4,0.7-1,0.9-1.9c0.1-0.6,0.2-0.8,0.5-0.8c0.2,0,0.2,0.3,0.2,0.5
	c0,0.5-0.3,2.9-0.6,4.3c-0.1,0.4-0.3,0.6-0.7,0.8c-1.1,0.4-3,0.6-4.8,0.6C183,176.3,179.4,175.6,176.4,173.2"/>
<path class="st1" d="M-117.7,286.4c-6.6-5.8-8.4-13-8.4-20.4c0-4.7,1.5-13.3,8.3-19.2c5.8-5.1,12.5-7.1,22.2-7.1
	c3.8,0,6.9,0.4,9.5,0.8c3,0.5,4.6,0.8,6.6,0.9c0.7,0.1,0.7,0.5,0.7,0.9c0,0.6-0.2,2.2-0.3,4.6c-0.1,2.3-0.1,6.4-0.2,8.1
	c-0.1,1-0.2,1.7-0.8,1.7c-0.5,0-0.7-0.5-0.8-1.5c-0.1-1.5-0.3-4.3-2.5-6.8c-2.3-2.6-7-4.4-13.5-4.4c-4,0-7.2,1-9.9,3.3
	c-4.1,3.7-5.9,10.1-5.9,17.6c0,14.3,7.5,23.9,18.8,23.9c5.5,0,8.9-0.5,11.5-3.5c0.9-1,1.7-2.6,2.2-4.6c0.3-1.5,0.5-1.9,1.1-1.9
	c0.5,0,0.5,0.7,0.5,1.2c0,1.2-0.8,7.2-1.5,10.5c-0.1,1-0.6,1.6-1.7,2c-2.7,1.1-7.2,1.6-11.5,1.6
	C-102.1,294.1-110.7,292.5-117.7,286.4 M-71.2,267.1c0,12.3,8.4,27,28.2,27c17.6,0,28.2-12.4,28.2-28.5c0-14.1-10.7-25.9-27.7-25.9
	C-62.2,239.6-71.2,253.2-71.2,267.1 M-28.2,268.6c0,19.2-8.6,21-12.7,21c-11.5,0-16.8-12.6-16.8-25.7c0-16.4,6.9-20,13.1-20
	C-32.8,244-28.2,257.1-28.2,268.6 M-2.5,273c0,6.7-0.1,11.6-0.3,14.5c-0.2,2.4-0.7,3.6-2.1,4c-0.7,0.1-1.6,0.2-2.3,0.3
	c-0.7,0-1.2,0.2-1.2,0.7s0.3,0.7,1.3,0.7c2.3,0,8.8-0.2,9.6-0.2c0.5,0,7.8,0.2,12.3,0.2c0.9,0,1.4-0.2,1.4-0.6
	c0-0.4-0.1-0.7-1.2-0.8c-1.3-0.1-2.1-0.1-3-0.4c-2-0.5-2.5-2-2.6-3.8c-0.3-2.9-0.3-6.2-0.3-11.7v-3.5c0-0.4,0.2-0.6,0.5-0.6H14
	c0.3,0,0.7,0.2,0.8,0.4c1.2,1.9,2.7,4.7,5.8,10c2.6,4.4,4.8,7.4,6.9,8.7c2.3,1.6,5.3,2.3,12.2,2.3h6c0.7,0,1.3-0.1,1.3-0.7
	c0-0.4-0.4-0.7-1.1-0.7c-0.5-0.1-0.9-0.1-1.7-0.2c-1.9-0.3-3.5-1.5-7-5.5c-4.1-4.9-9-12.3-13.1-18.4c5.8-3.7,9-8.1,9-13.9
	c0-5.3-2.9-8.8-6.1-10.6c-2.9-1.7-7.4-2.4-13.7-2.4c-3.1,0-9.5,0.2-10.8,0.2c-0.9,0-7.4-0.2-10.3-0.2c-1,0-1.5,0.2-1.5,0.6
	c0,0.4,0.4,0.7,1.2,0.8c0.6,0.1,1.7,0.1,2.7,0.3c1.6,0.3,2.4,1.2,2.5,4.1c0.1,2.2,0.2,3.6,0.2,14.4V273z M9.1,246.1
	c0-0.6,0.1-0.6,0.4-0.8c0.5-0.2,1.6-0.3,2.7-0.3c3.5,0,9.5,2.6,9.5,12.4c0,4.6-1.2,7.6-2.6,8.7c-1.1,0.8-2.4,1.1-4.2,1.1
	c-1.9,0-3.9-0.2-5.2-0.9c-0.4-0.2-0.6-0.5-0.6-1V246.1z M56.8,242.9c-0.4,8.9-0.3,25.7-0.6,40c-0.2,6.5-0.5,8.2-3.2,8.6
	c-0.7,0.1-1.6,0.1-2.2,0.2c-0.9,0-1.3,0.3-1.3,0.7c0,0.6,0.5,0.7,1.5,0.7c2.6,0,7.6-0.2,9.1-0.2c4.2,0.1,6.3,0.2,8.7,0.2
	c1.1,0,1.6-0.1,1.6-0.7c0-0.4-0.3-0.6-1.3-0.7c-1.3-0.1-2.6-0.1-3.6-0.5c-1.9-0.7-2.1-2.6-2.3-7.6L62.5,260
	c4.9,4.9,11.6,11.5,15.4,15c4,3.8,9.9,9.3,14.5,13.5c4.4,4,6.4,5.6,7.5,5.6c0.9,0,1.3-0.8,1.3-4.3c0.3-13.9,0.3-27.8,0.8-41.8
	c0.2-4.3,0.9-5.5,3.1-5.8c0.5-0.1,0.8-0.1,1.7-0.2c0.8,0,1.1-0.4,1.1-0.8c0-0.4-0.5-0.6-1.5-0.6c-2.8,0-6.2,0.2-7.6,0.2
	c-2.7,0-7-0.2-9.7-0.2c-0.7,0-1.3,0.2-1.3,0.7c0,0.3,0.3,0.7,1.2,0.7c0.9,0.1,2,0.1,3,0.3c2.7,0.5,3,2.3,3.2,6.2l0.4,26
	c-1.8-1.7-6.4-6.3-13.3-12.8c-15.4-14.6-18.8-18-21.7-20.5c-1.7-1.5-2.1-1.7-2.6-1.7C57.1,239.6,56.8,240.8,56.8,242.9 M121.8,273
	c0,4.3-0.1,8.4-0.2,11.2c-0.1,4.4-0.4,7-2.3,7.3c-0.5,0.1-1.2,0.2-2,0.3c-1,0-1.3,0.3-1.3,0.7c0,0.5,0.4,0.7,1.6,0.7
	c3.7,0,6.5-0.2,9.7-0.2c7,0,12.1,0.4,21.3,0.4c2.5,0,3-0.1,3.4-1.9c0.3-1.3,1.1-6.6,1.1-9.3c0-0.8-0.1-1.5-0.6-1.5
	c-0.4,0-0.7,0.4-0.8,1.2c-0.6,3.2-1.4,4.7-3.3,5.5c-1.9,0.8-4.5,0.8-6.2,0.8c-7.4,0-8.4-1.1-8.4-6c-0.1-2.6,0-6.7,0-9.1v-4.8
	c0-0.6,0.1-0.9,0.4-0.9c2.1,0,7.6,0.1,9.5,0.3c3.3,0.2,4.2,1.4,4.5,3.4c0.1,0.6,0.1,1,0.2,1.6c0.1,0.6,0.3,1.1,0.7,1.1
	c0.4,0,0.6-0.4,0.6-1.3c0-0.8,0-4.2,0.1-5.8c0.2-2.7,0.5-5.2,0.5-5.9c0-0.4,0-0.8-0.4-0.8c-0.3,0-0.5,0.3-0.9,0.9
	c-0.7,1.3-1.6,1.5-4.9,1.6c-2.4,0.1-7.8,0.1-9.7,0.1c-0.5,0-0.5-0.3-0.5-0.8v-15.3c0-0.5,0.1-0.7,0.5-0.7c2,0,7.8,0.1,10.1,0.3
	c3.2,0.3,4.1,1.2,4.4,2.8c0.3,1,0.3,1.7,0.3,2.4c0.1,0.6,0.3,1,0.7,1c0.4,0,0.7-0.4,0.7-1c0.2-3.6,0.3-6,0.5-7.4
	c0.2-2,0.3-2.7,0.3-3.1c0-0.3-0.1-0.6-0.4-0.6c-0.3,0-0.6,0.1-1.1,0.3c-0.7,0.1-2.3,0.3-3.6,0.3c-1.1,0-17.5,0.1-18.9,0.1
	c-2.9,0-6.2-0.2-10-0.2c-1.1,0-1.5,0.2-1.5,0.6c0,0.4,0.3,0.7,1.2,0.8c0.7,0.1,1.6,0.1,2.2,0.2c1.7,0.4,2.3,1.6,2.4,3.6
	c0.1,2.2,0.2,3.6,0.2,14.9V273z M166.9,273c0,6.7-0.1,11.6-0.3,14.5c-0.2,2.4-0.7,3.6-2.1,4c-0.7,0.1-1.6,0.2-2.3,0.3
	c-0.7,0-1.2,0.2-1.2,0.7s0.3,0.7,1.3,0.7c2.3,0,8.8-0.2,9.6-0.2c0.5,0,7.8,0.2,12.3,0.2c0.9,0,1.4-0.2,1.4-0.6
	c0-0.4-0.1-0.7-1.2-0.8c-1.3-0.1-2.1-0.1-3-0.4c-2-0.5-2.5-2-2.6-3.8c-0.3-2.9-0.3-6.2-0.3-11.7v-3.5c0-0.4,0.2-0.6,0.5-0.6h4.4
	c0.3,0,0.7,0.2,0.8,0.4c1.2,1.9,2.7,4.7,5.8,10c2.6,4.4,4.8,7.4,6.9,8.7c2.3,1.6,5.3,2.3,12.2,2.3h6c0.7,0,1.3-0.1,1.3-0.7
	c0-0.4-0.4-0.7-1.1-0.7c-0.5-0.1-0.9-0.1-1.7-0.2c-1.9-0.3-3.5-1.5-7-5.5c-4.1-4.9-9-12.3-13.1-18.4c5.8-3.7,9-8.1,9-13.9
	c0-5.3-2.9-8.8-6.1-10.6c-2.9-1.7-7.4-2.4-13.7-2.4c-3.1,0-9.5,0.2-10.8,0.2c-0.9,0-7.4-0.2-10.3-0.2c-1,0-1.5,0.2-1.5,0.6
	c0,0.4,0.4,0.7,1.2,0.8c0.6,0.1,1.7,0.1,2.7,0.3c1.6,0.3,2.4,1.2,2.5,4.1c0.1,2.2,0.2,3.6,0.2,14.4V273z M178.4,246.1
	c0-0.6,0.1-0.6,0.4-0.8c0.5-0.2,1.6-0.3,2.7-0.3c3.5,0,9.5,2.6,9.5,12.4c0,4.6-1.2,7.6-2.6,8.7c-1.1,0.8-2.4,1.1-4.2,1.1
	c-1.9,0-3.9-0.2-5.2-0.9c-0.4-0.2-0.6-0.5-0.6-1V246.1z M221,292.1c2.6,1.3,6.2,1.9,11.2,1.9c3.5,0,7.8-0.6,11.7-3
	c5-3.1,7.1-7.8,7.1-12.6c0-7-2.9-11.3-12.3-17.8l-3.4-2.4c-4.6-3.2-5.4-5.9-5.4-8.3c0-3.2,2-6.4,7.5-6.4c4.8,0,7.9,2.4,9.2,4.6
	c0.9,1.6,1.1,3.3,1.2,4c0.1,1.1,0.4,1.3,0.7,1.3c0.5,0,0.7-0.5,0.7-1.7c0-6.2,0.1-7.6,0.3-9.8c0-0.6-0.2-0.8-0.9-1
	c-1.1-0.3-2.2-0.6-3.3-0.8c-2.8-0.6-4.8-0.7-7.7-0.7c-10.7,0-17.1,6.5-17.1,14.4c0,6.1,2.3,11,10.5,16.9l4.2,3
	c5.7,4,6.2,6.5,6.2,9.4c0,3-1.9,6.4-8.3,6.4c-5.2,0-10.3-3.3-11.4-9c-0.2-0.8-0.3-1.5-0.3-2.2c-0.1-0.6-0.1-1.2-0.6-1.2
	c-0.4,0-0.7,0.4-0.8,1.7c-0.2,1.9-0.4,4.6-0.4,10.2C219.6,290.7,219.9,291.6,221,292.1 M286.4,245.8c5.1,0,8.6,0.1,10.8,0.3
	c4,0.3,5,1.9,5.2,4.1c0.1,0.3,0.1,0.6,0.1,1.4c0.1,0.8,0.2,1.2,0.7,1.2c0.4,0,0.6-0.4,0.7-1.4c0.1-1.7,0.5-8.2,0.5-9.2
	c0-1.7-0.1-2.2-0.7-2.2c-0.5,0-1,0.2-2.1,0.4c-0.9,0.1-2.1,0.3-4.2,0.3h-29.2c-2.5,0-6.2-0.2-7.4-0.5c-1.5-0.3-1.8-0.6-2.3-0.6
	c-0.4,0-0.6,0.7-0.7,1.7c-0.5,2.6-1.2,6.4-1.5,9.2c-0.1,0.8-0.1,1.4,0.5,1.4c0.5,0,0.7-0.6,0.8-1.1c0.1-0.4,0.3-0.8,0.6-1.6
	c0.9-2.4,2.3-3.3,6.1-3.5c3.4-0.2,7.5-0.1,10.1-0.1V273c0,6.7-0.1,11.7-0.4,14.6c-0.2,2-0.7,3.5-2.1,3.8c-0.7,0.1-1.5,0.2-2.1,0.3
	c-0.8,0-1.3,0.2-1.3,0.7c0,0.6,0.5,0.7,1.5,0.7c2.2,0,8.7-0.2,9.9-0.2c1.1,0,7.6,0.2,12.1,0.2c1.2,0,1.5-0.2,1.5-0.6
	c0-0.5-0.3-0.7-1.3-0.8c-1.2-0.1-2-0.2-2.9-0.3c-2-0.3-2.5-1.8-2.6-3.6c-0.3-2.9-0.3-9.4-0.3-14.8V245.8z M309.2,267.1
	c0,12.3,8.4,27,28.2,27c17.6,0,28.2-12.4,28.2-28.5c0-14.1-10.7-25.9-27.7-25.9C318.1,239.6,309.2,253.2,309.2,267.1 M352.1,268.6
	c0,19.2-8.6,21-12.7,21c-11.5,0-16.8-12.6-16.8-25.7c0-16.4,6.9-20,13.1-20C347.5,244,352.1,257.1,352.1,268.6 M377.6,242.9
	c-0.4,8.9-0.3,25.7-0.6,40c-0.2,6.5-0.5,8.2-3.2,8.6c-0.7,0.1-1.6,0.1-2.2,0.2c-0.9,0-1.3,0.3-1.3,0.7c0,0.6,0.5,0.7,1.5,0.7
	c2.6,0,7.6-0.2,9.1-0.2c4.2,0.1,6.3,0.2,8.7,0.2c1.1,0,1.6-0.1,1.6-0.7c0-0.4-0.3-0.6-1.3-0.7c-1.3-0.1-2.5-0.1-3.6-0.5
	c-1.9-0.7-2.1-2.6-2.3-7.6l-0.7-23.7c4.9,4.9,11.6,11.5,15.4,15c4,3.8,9.9,9.3,14.5,13.5c4.4,4,6.4,5.6,7.5,5.6
	c0.9,0,1.3-0.8,1.3-4.3c0.3-13.9,0.3-27.8,0.8-41.8c0.2-4.3,0.9-5.5,3.1-5.8c0.5-0.1,0.8-0.1,1.7-0.2c0.8,0,1.1-0.4,1.1-0.8
	c0-0.4-0.5-0.6-1.5-0.6c-2.8,0-6.2,0.2-7.6,0.2c-2.7,0-7-0.2-9.7-0.2c-0.7,0-1.3,0.2-1.3,0.7c0,0.3,0.3,0.7,1.2,0.7
	c0.9,0.1,2,0.1,2.9,0.3c2.7,0.5,3,2.3,3.2,6.2l0.4,26c-1.8-1.7-6.4-6.3-13.3-12.8c-15.4-14.6-18.8-18-21.7-20.5
	c-1.7-1.5-2.1-1.7-2.6-1.7C377.9,239.6,377.6,240.8,377.6,242.9 M442.6,273c0,4.3-0.1,8.4-0.2,11.2c-0.1,4.4-0.4,7-2.3,7.3
	c-0.5,0.1-1.2,0.2-2,0.3c-1,0-1.3,0.3-1.3,0.7c0,0.5,0.4,0.7,1.6,0.7c3.7,0,6.5-0.2,9.7-0.2c7,0,12.1,0.4,21.3,0.4
	c2.5,0,3-0.1,3.4-1.9c0.3-1.3,1.1-6.6,1.1-9.3c0-0.8-0.1-1.5-0.6-1.5c-0.4,0-0.7,0.4-0.8,1.2c-0.6,3.2-1.4,4.7-3.3,5.5
	c-1.9,0.8-4.5,0.8-6.2,0.8c-7.4,0-8.4-1.1-8.4-6c-0.1-2.6,0-6.7,0-9.1v-4.8c0-0.6,0.1-0.9,0.4-0.9c2.1,0,7.6,0.1,9.5,0.3
	c3.3,0.2,4.2,1.4,4.5,3.4c0.1,0.6,0.1,1,0.2,1.6c0.1,0.6,0.3,1.1,0.7,1.1c0.4,0,0.6-0.4,0.6-1.3c0-0.8,0-4.2,0.1-5.8
	c0.2-2.7,0.5-5.2,0.5-5.9c0-0.4,0-0.8-0.4-0.8c-0.3,0-0.5,0.3-0.9,0.9c-0.7,1.3-1.6,1.5-4.9,1.6c-2.4,0.1-7.8,0.1-9.7,0.1
	c-0.5,0-0.5-0.3-0.5-0.8v-15.3c0-0.5,0.1-0.7,0.5-0.7c2,0,7.8,0.1,10.1,0.3c3.2,0.3,4.1,1.2,4.4,2.8c0.3,1,0.3,1.7,0.3,2.4
	c0.1,0.6,0.3,1,0.7,1c0.4,0,0.7-0.4,0.7-1c0.2-3.6,0.3-6,0.5-7.4c0.2-2,0.3-2.7,0.3-3.1c0-0.3-0.1-0.6-0.4-0.6
	c-0.3,0-0.6,0.1-1.1,0.3c-0.7,0.1-2.3,0.3-3.6,0.3c-1.1,0-17.5,0.1-18.9,0.1c-2.9,0-6.2-0.2-10-0.2c-1.1,0-1.5,0.2-1.5,0.6
	c0,0.4,0.3,0.7,1.2,0.8c0.7,0.1,1.6,0.1,2.2,0.2c1.7,0.4,2.3,1.6,2.4,3.6c0.1,2.2,0.2,3.6,0.2,14.9V273z"/>
</svg>
